<svg xmlns="http://www.w3.org/2000/svg" viewBox="0 0 512 512">
  <rect width="512" height="512" rx="96" fill="#08183A"/>
  <rect x="48" y="48" width="416" height="416" rx="72" fill="#0E2A5C"/>
  <circle cx="256" cy="200" r="72" fill="#C9A24A" opacity="0.15"/>
  <path d="M196 176 h120 a8 8 0 0 1 8 8 v80 a8 8 0 0 1 -8 8 h-120 a8 8 0 0 1 -8 -8 v-80 a8 8 0 0 1 8 -8 z" fill="#F5F1E6"/>
  <rect x="204" y="184" width="44" height="72" rx="4" fill="#C9A24A"/>
  <rect x="256" y="184" width="28" height="32" rx="3" fill="#2E8B57"/>
  <rect x="292" y="184" width="24" height="32" rx="3" fill="#C03A2B"/>
  <rect x="256" y="224" width="60" height="32" rx="3" fill="#FFFFFF" opacity="0.9"/>
  <circle cx="256" cy="140" r="20" fill="#FFFFFF" stroke="#2E8B57" strokeWidth="4"/>
  <path d="M247 140 l6 6 l12 -12" stroke="#176B3F" stroke-width="3.5" fill="none" stroke-linecap="round" stroke-linejoin="round"/>
  <rect x="156" y="316" width="200" height="12" rx="6" fill="#C9A24A" opacity="0.6"/>
  <rect x="196" y="336" width="120" height="8" rx="4" fill="#C9A24A" opacity="0.3"/>
</svg>
